<svg width="1080" height="1080" viewBox="0 0 1080 1080" fill="none" xmlns="http://www.w3.org/2000/svg">
<rect width="1080" height="1080" fill="white"/>
<rect x="361" y="328" width="21" height="357" fill="black"/>
<rect x="427" y="394" width="21" height="251" fill="black"/>
<rect x="427" y="706" width="21" height="46" fill="black"/>
<rect x="382" y="328" width="114" height="21" fill="black"/>
<path d="M496 328C514 328.5 542.862 331.989 571 345.709C769.5 442.5 714.394 685.102 558 739.5C523.5 751.5 493 752 493 752V731C493 731 514.243 728.477 527.5 725.5C620.858 704.535 682 623.5 676.5 531C671 438.5 609.754 383.755 563 364C527.5 349 496 349 496 349C496 349 478 327.5 496 328Z" fill="black"/>
<path d="M494.924 394C511.5 394.5 527.5 397 545 406.5C600.855 436.821 630.912 484.776 631.5 533.752C632.319 602 590.779 656.049 535 676.5C512.871 684.613 493 685 493 685V665C493 665 509.485 663.23 519 660.5C576.5 644 613.37 593.5 610 533.752C606.63 474.004 565.489 438.357 535.5 425C512.73 414.858 494.924 415 494.924 415C494.924 415 478.348 393.5 494.924 394Z" fill="black"/>
<rect x="382" y="665" width="111" height="20" fill="black"/>
<rect x="448" y="731" width="45" height="21" fill="black"/>
<rect x="448" y="394" width="47" height="21" fill="black"/>
</svg>
